<svg width="1012" height="1012" viewBox="0 0 1012 1012" fill="none" xmlns="http://www.w3.org/2000/svg">
<circle cx="506" cy="505.521" r="404.233" stroke="url(#paint0_linear_1_3)" stroke-width="1.37898"/>
<circle cx="506" cy="505.521" r="306.305" stroke="url(#paint1_linear_1_3)" stroke-width="1.37898"/>
<circle cx="506" cy="505.521" r="504.832" stroke="url(#paint2_linear_1_3)" stroke-width="1.37898"/>
<g clip-path="url(#clip0_1_3)">
<rect x="424" y="186.685" width="40" height="40" rx="20" fill="#F8F8F8"/>
<g clip-path="url(#clip1_1_3)">
<path d="M423.259 187.426C421.688 187.426 420.18 188.05 419.069 189.161C417.958 190.273 417.333 191.78 417.333 193.351V220.018C417.333 221.59 417.958 223.097 419.069 224.208C420.18 225.32 421.688 225.944 423.259 225.944H435.111V187.426H423.259Z" fill="#009A49"/>
<path d="M435.111 187.426H452.889V225.944H435.111V187.426Z" fill="#EEEEEE"/>
<path d="M464.741 187.426H452.889V225.944H464.741C466.312 225.944 467.82 225.32 468.931 224.208C470.042 223.097 470.667 221.59 470.667 220.018V193.351C470.667 191.78 470.042 190.273 468.931 189.161C467.82 188.05 466.312 187.426 464.741 187.426Z" fill="#009A49"/>
</g>
</g>
<g clip-path="url(#clip2_1_3)">
<rect x="557" y="87.0165" width="40" height="40" rx="20" fill="#F8F8F8"/>
<g clip-path="url(#clip3_1_3)">
<path d="M604.46 89.7017C603.369 87.827 601.362 86.5536 599.037 86.5536H577V89.7017H604.46ZM548.667 118.035H605.333V121.183H548.667V118.035ZM577 105.442H605.333V108.591H577V105.442ZM577 99.1461H605.333V102.294H577V99.1461ZM548.667 111.739H605.333V114.887H548.667V111.739ZM554.963 127.479H599.037C601.362 127.479 603.369 126.206 604.46 124.331H549.54C550.631 126.206 552.638 127.479 554.963 127.479ZM577 92.8499H605.333V95.998H577V92.8499Z" fill="#B22334"/>
<path d="M548.774 122.252C548.8 122.398 548.83 122.545 548.867 122.688C548.907 122.847 548.958 123 549.011 123.154C549.151 123.562 549.321 123.955 549.536 124.323L549.54 124.331H604.46L604.463 124.325C604.674 123.954 604.849 123.563 604.985 123.159C605.089 122.863 605.169 122.56 605.225 122.252C605.289 121.906 605.333 121.55 605.333 121.183H548.667C548.667 121.55 548.711 121.904 548.774 122.252ZM548.667 114.887H605.333V118.035H548.667V114.887ZM548.667 108.591V111.739H605.333V108.591H577H548.667ZM577 102.294H605.333V105.442H577V102.294ZM577 95.998H605.333V99.1462H577V95.998ZM548.868 91.345C548.907 91.1845 548.963 91.0318 549.013 90.8775C548.958 91.0313 548.91 91.1873 548.868 91.345ZM577 92.8499H605.333C605.333 92.4831 605.289 92.1274 605.225 91.7795C605.17 91.4711 605.089 91.1679 604.984 90.8728C604.847 90.4664 604.672 90.0742 604.46 89.7017H577V92.8499Z" fill="#EEEEEE"/>
<path d="M577 86.5536H554.963C553.293 86.5536 551.692 87.2169 550.511 88.3977C549.33 89.5785 548.667 91.18 548.667 92.8499V108.591H577V86.5536Z" fill="#3C3B6E"/>
<path d="M551.816 90.8445L552.789 91.5513L552.418 92.6925L553.389 91.9873L554.362 92.6925L553.99 91.5513L554.963 90.8445H553.76L553.389 89.7017L553.019 90.8445H551.816ZM554.964 93.9926L555.937 94.6994L555.566 95.8406L556.537 95.1354L557.51 95.8406L557.138 94.6994L558.111 93.9926H556.908L556.537 92.8499L556.167 93.9926H554.964ZM561.261 93.9926L562.234 94.6994L561.862 95.8406L562.833 95.1354L563.806 95.8406L563.435 94.6994L564.407 93.9926H563.205L562.833 92.8499L562.463 93.9926H561.261ZM567.557 93.9926L568.53 94.6994L568.158 95.8406L569.13 95.1354L570.102 95.8406L569.731 94.6994L570.704 93.9926H569.501L569.13 92.8499L568.76 93.9926H567.557ZM554.964 100.289L555.937 100.996L555.566 102.137L556.537 101.432L557.51 102.137L557.138 100.996L558.111 100.289H556.908L556.537 99.1462L556.167 100.289H554.964ZM561.261 100.289L562.234 100.996L561.862 102.137L562.833 101.432L563.806 102.137L563.435 100.996L564.407 100.289H563.205L562.833 99.1462L562.463 100.289H561.261ZM567.557 100.289L568.53 100.996L568.158 102.137L569.13 101.432L570.102 102.137L569.731 100.996L570.704 100.289H569.501L569.13 99.1462L568.76 100.289H567.557ZM558.113 90.8445L559.085 91.5513L558.714 92.6925L559.685 91.9873L560.658 92.6925L560.286 91.5513L561.259 90.8445H560.057L559.685 89.7017L559.315 90.8445H558.113ZM564.409 90.8445L565.382 91.5513L565.01 92.6925L565.981 91.9873L566.954 92.6925L566.583 91.5513L567.556 90.8445H566.353L565.981 89.7017L565.612 90.8445H564.409ZM570.705 90.8445L571.678 91.5513L571.307 92.6925L572.278 91.9873L573.251 92.6925L572.879 91.5513L573.852 90.8445H572.649L572.278 89.7017L571.908 90.8445H570.705ZM551.816 97.1408L552.789 97.8475L552.418 98.9887L553.389 98.2836L554.362 98.9887L553.99 97.8475L554.963 97.1408H553.76L553.389 95.998L553.019 97.1408H551.816ZM558.714 98.9887L559.685 98.2836L560.658 98.9887L560.286 97.8475L561.259 97.1408H560.057L559.685 95.998L559.315 97.1408H558.113L559.085 97.8475L558.714 98.9887ZM564.409 97.1408L565.382 97.8475L565.01 98.9887L565.981 98.2836L566.954 98.9887L566.583 97.8475L567.556 97.1408H566.353L565.981 95.998L565.612 97.1408H564.409ZM570.705 97.1408L571.678 97.8475L571.307 98.9887L572.278 98.2836L573.251 98.9887L572.879 97.8475L573.852 97.1408H572.649L572.278 95.998L571.908 97.1408H570.705ZM551.816 103.437L552.789 104.144L552.418 105.285L553.389 104.58L554.362 105.285L553.99 104.144L554.963 103.437H553.76L553.389 102.294L553.019 103.437H551.816ZM558.714 105.285L559.685 104.58L560.658 105.285L560.286 104.144L561.259 103.437H560.057L559.685 102.294L559.315 103.437H558.113L559.085 104.144L558.714 105.285ZM564.409 103.437L565.382 104.144L565.01 105.285L565.981 104.58L566.954 105.285L566.583 104.144L567.556 103.437H566.353L565.981 102.294L565.612 103.437H564.409ZM570.705 103.437L571.678 104.144L571.307 105.285L572.278 104.58L573.251 105.285L572.879 104.144L573.852 103.437H572.649L572.278 102.294L571.908 103.437H570.705Z" fill="#F8F8F8"/>
</g>
</g>
<g clip-path="url(#clip4_1_3)">
<rect x="737" y="46.5536" width="40" height="40" rx="20" fill="#F8F8F8"/>
<path d="M757.064 43.347C747.523 43.347 739.301 49.087 735.733 57.3092H778.395C774.827 49.087 766.605 43.347 757.064 43.347Z" fill="#25333A"/>
<path d="M757.064 89.8876C766.605 89.8876 774.827 84.1476 778.395 75.9254H735.733C739.301 84.1476 747.523 89.8876 757.064 89.8876Z" fill="#137A08"/>
<path d="M780.334 66.6173C780.334 64.4454 780.024 62.3511 779.481 60.4119H734.647C734.104 62.3511 733.793 64.4454 733.793 66.6173C733.793 68.7892 734.104 70.8835 734.647 72.8227H779.481C780.024 70.8835 780.334 68.7892 780.334 66.6173Z" fill="#C94747"/>
<path d="M735.112 74.3741C735.267 74.917 735.5 75.3824 735.733 75.9254H778.395C778.628 75.3824 778.86 74.917 779.015 74.3741C779.171 73.8311 779.326 73.3657 779.481 72.8227H734.647C734.802 73.3657 734.957 73.8311 735.112 74.3741ZM779.015 58.8605C778.86 58.3176 778.628 57.8522 778.395 57.3092H735.733C735.5 57.8522 735.267 58.3176 735.112 58.8605C734.957 59.4035 734.802 59.8689 734.647 60.4119H779.481C779.326 59.8689 779.171 59.4035 779.015 58.8605Z" fill="#F8F8F8"/>
<path d="M747.911 82.3635L748.454 82.6738L763.424 56.7662C764.277 56.5335 764.743 55.6803 765.286 54.9046C765.596 54.3616 766.915 52.1121 767.458 49.2421C765.208 51.1813 763.967 53.3532 763.657 53.9738C763.192 54.827 762.726 55.6027 762.959 56.5335L747.911 82.3635Z" fill="#F8F8F8"/>
<path d="M766.217 82.3635L765.674 82.6738L750.703 56.7662C749.85 56.5335 749.385 55.6803 748.842 54.9046C748.531 54.3616 747.213 52.1121 746.67 49.2421C748.919 51.1813 750.16 53.3532 750.47 53.9738C750.936 54.827 751.401 55.6027 751.169 56.5335L766.217 82.3635Z" fill="#F8F8F8"/>
<path d="M763.269 66.6173C763.269 75.1497 757.064 82.1308 757.064 82.1308C757.064 82.1308 750.858 75.1497 750.858 66.6173C750.858 58.0849 757.064 51.1038 757.064 51.1038C757.064 51.1038 763.269 58.0849 763.269 66.6173Z" fill="#C94747"/>
<path d="M752.487 72.8227C753.806 71.5041 754.737 69.2546 754.737 66.6173C754.737 63.98 753.883 61.7305 752.487 60.4119C751.944 62.1959 751.634 64.3678 751.634 66.6173C751.634 68.8668 751.944 71.0387 752.487 72.8227ZM761.64 60.4119C760.322 61.7305 759.391 63.98 759.391 66.6173C759.391 69.2546 760.244 71.5041 761.64 72.8227C762.183 71.0387 762.493 68.8668 762.493 66.6173C762.493 64.3678 762.183 62.1959 761.64 60.4119Z" fill="#25333A"/>
<path d="M757.064 68.4789C757.749 68.4789 758.305 67.6454 758.305 66.6173C758.305 65.5891 757.749 64.7557 757.064 64.7557C756.378 64.7557 755.823 65.5891 755.823 66.6173C755.823 67.6454 756.378 68.4789 757.064 68.4789Z" fill="#F8F8F8"/>
<path d="M756.598 51.6467C756.133 52.9654 755.823 55.4475 755.823 58.1624C755.823 60.9548 756.133 63.3594 756.598 64.6781C756.753 62.7389 756.909 60.567 756.909 58.1624C756.909 55.8354 756.831 53.5859 756.598 51.6467ZM757.529 51.6467C757.995 52.9654 758.305 55.4475 758.305 58.1624C758.305 60.9548 757.995 63.3594 757.529 64.6781C757.374 62.7389 757.219 60.567 757.219 58.1624C757.219 55.8354 757.296 53.5859 757.529 51.6467ZM756.598 68.4789C756.133 69.7976 755.823 72.2797 755.823 74.9946C755.823 77.787 756.133 80.1916 756.598 81.5103C756.753 79.5711 756.909 77.3992 756.909 74.9946C756.909 72.6676 756.831 70.4181 756.598 68.4789ZM757.529 68.4789C757.995 69.7976 758.305 72.2797 758.305 74.9946C758.305 77.787 757.995 80.1916 757.529 81.5103C757.374 79.5711 757.219 77.3992 757.219 74.9946C757.219 72.6676 757.296 70.4181 757.529 68.4789Z" fill="#F8F8F8"/>
</g>
<g clip-path="url(#clip5_1_3)">
<rect x="314" y="11" width="40" height="40" rx="20" fill="#F8F8F8"/>
<g clip-path="url(#clip6_1_3)">
<path fill-rule="evenodd" clip-rule="evenodd" d="M307.333 11V51H360.667V11H307.333Z" fill="#2E42A5"/>
<mask id="mask0_1_3" style="mask-type:luminance" maskUnits="userSpaceOnUse" x="307" y="11" width="54" height="40">
<path fill-rule="evenodd" clip-rule="evenodd" d="M307.333 11V51H360.667V11H307.333Z" fill="white"/>
</mask>
<g mask="url(#mask0_1_3)">
<path d="M301.395 48.1416L313.132 53.1066L360.932 16.3966L367.123 9.01996L354.573 7.36163L335.077 23.18L319.383 33.84L301.395 48.1416Z" fill="#F8F8F8"/>
<path d="M303 51.6199L308.982 54.4999L364.9 8.33495H356.505L303 51.6199Z" fill="#F50100"/>
<path d="M366.605 48.1416L354.868 53.1066L307.068 16.3966L300.877 9.01996L313.427 7.36163L332.923 23.18L348.617 33.84L366.605 48.1416Z" fill="#F8F8F8"/>
<path d="M366.205 50.6383L360.225 53.5183L336.415 33.7516L329.355 31.545L300.28 9.04498H308.677L337.733 31.0116L345.452 33.6583L366.205 50.6383Z" fill="#F50100"/>
<path fill-rule="evenodd" clip-rule="evenodd" d="M340.297 7.66661H327.703V24.3333H304.047V37.6666H327.703V54.3333H340.297V37.6666H364.047V24.3333H340.297V7.66661Z" fill="#F50100"/>
<mask id="mask1_1_3" style="mask-type:luminance" maskUnits="userSpaceOnUse" x="304" y="7" width="61" height="48">
<path fill-rule="evenodd" clip-rule="evenodd" d="M340.297 7.66661H327.703V24.3333H304.047V37.6666H327.703V54.3333H340.297V37.6666H364.047V24.3333H340.297V7.66661Z" fill="white"/>
</mask>
<g mask="url(#mask1_1_3)">
<path d="M327.703 7.66661V4.33328H324.37V7.66661H327.703ZM340.297 7.66661H343.63V4.33328H340.297V7.66661ZM327.703 24.3333V27.6666H331.037V24.3333H327.703ZM304.047 24.3333V20.9999H300.713V24.3333H304.047ZM304.047 37.6666H300.713V40.9999H304.047V37.6666ZM327.703 37.6666H331.037V34.3333H327.703V37.6666ZM327.703 54.3333H324.37V57.6666H327.703V54.3333ZM340.297 54.3333V57.6666H343.63V54.3333H340.297ZM340.297 37.6666V34.3333H336.963V37.6666H340.297ZM364.047 37.6666V40.9999H367.38V37.6666H364.047ZM364.047 24.3333H367.38V20.9999H364.047V24.3333ZM340.297 24.3333H336.963V27.6666H340.297V24.3333ZM327.703 10.9999H340.297V4.33328H327.703V10.9999ZM331.037 24.3333V7.66661H324.37V24.3333H331.037ZM304.047 27.6666H327.703V20.9999H304.047V27.6666ZM307.38 37.6666V24.3333H300.713V37.6666H307.38ZM327.703 34.3333H304.047V40.9999H327.703V34.3333ZM331.037 54.3333V37.6666H324.37V54.3333H331.037ZM340.297 50.9999H327.703V57.6666H340.297V50.9999ZM336.963 37.6666V54.3333H343.63V37.6666H336.963ZM364.047 34.3333H340.297V40.9999H364.047V34.3333ZM360.713 24.3333V37.6666H367.38V24.3333H360.713ZM340.297 27.6666H364.047V20.9999H340.297V27.6666ZM336.963 7.66661V24.3333H343.63V7.66661H336.963Z" fill="#F8F8F8"/>
</g>
</g>
</g>
</g>
<g clip-path="url(#clip7_1_3)">
<rect x="792.994" y="222" width="40" height="40" rx="20" fill="#F8F8F8"/>
<path d="M812.994 220.125C803.442 220.125 795.349 226.177 792.359 234.708H833.63C830.64 226.177 822.547 220.125 812.994 220.125Z" fill="#C94747"/>
<path d="M812.994 263.875C822.547 263.875 830.64 257.823 833.63 249.292H792.359C795.349 257.823 803.442 263.875 812.994 263.875Z" fill="#699635"/>
<path d="M792.359 234.708C791.557 236.969 791.119 239.448 791.119 242C791.119 244.552 791.557 247.031 792.359 249.292H833.63C834.432 247.031 834.869 244.552 834.869 242C834.869 239.448 834.432 236.969 833.63 234.708H792.359Z" fill="#FFCE31"/>
<path d="M812.994 245.865L817.515 249.292L815.765 243.75L820.286 240.177H814.744L812.994 234.708L811.317 240.177H805.703L810.224 243.75L808.474 249.292L812.994 245.865Z" fill="#3E4347"/>
</g>
<g clip-path="url(#clip8_1_3)">
<rect x="95" y="162.157" width="40" height="40" rx="20" fill="#F8F8F8"/>
<path d="M134.568 187.574C135.042 185.881 135.313 184.053 135.313 182.157C135.313 180.261 135.042 178.433 134.568 176.74H114.797L103.354 165.501C100.646 167.397 98.4115 169.969 96.8542 172.949L106.198 182.157L96.9219 191.365C98.4115 194.344 100.646 196.917 103.422 198.813L114.797 187.574H134.568Z" fill="#699635"/>
<path d="M95.7031 175.725C95.026 177.756 94.6875 179.923 94.6875 182.157C94.6875 184.391 95.026 186.558 95.7031 188.589L102.203 182.157L95.7031 175.725Z" fill="#3E4347"/>
<path d="M105.724 200.235C108.5 201.657 111.682 202.469 115 202.469C123.328 202.469 130.505 197.459 133.62 190.214H115.948L105.724 200.235Z" fill="#428BC1"/>
<path d="M133.62 174.1C130.505 166.855 123.328 161.844 115 161.844C111.682 161.844 108.5 162.657 105.724 164.079L115.948 174.1H133.62Z" fill="#ED4C5C"/>
<path d="M134.297 175.86C134.094 175.251 133.891 174.641 133.62 174.1H115.948L105.724 164.079C105.25 164.282 104.844 164.553 104.37 164.824C104.031 165.027 103.693 165.298 103.354 165.501L114.797 176.74H134.568C134.5 176.469 134.432 176.131 134.297 175.86Z" fill="#F8F8F8"/>
<path d="M96.9219 172.949C96.8542 173.084 96.7865 173.219 96.7188 173.423C96.3802 174.167 96.0417 174.912 95.7708 175.725L102.271 182.157L95.7708 188.589C96.0417 189.402 96.3125 190.147 96.7188 190.891C96.7865 191.027 96.8542 191.162 96.9219 191.365L106.198 182.157L96.9219 172.949Z" fill="#FFCE31"/>
<path d="M114.797 187.574L103.354 198.813C103.557 198.949 103.828 199.152 104.031 199.287C104.573 199.626 105.115 199.964 105.724 200.235L115.948 190.214H133.62C133.891 189.537 134.161 188.86 134.432 188.115C134.5 187.912 134.5 187.777 134.568 187.574H114.797Z" fill="#F8F8F8"/>
</g>
<defs>
<linearGradient id="paint0_linear_1_3" x1="506" y1="100.599" x2="506" y2="765.749" gradientUnits="userSpaceOnUse">
<stop stop-color="#E0EDFF"/>
<stop offset="1" stop-color="#E9E9E9" stop-opacity="0"/>
</linearGradient>
<linearGradient id="paint1_linear_1_3" x1="506" y1="198.527" x2="506" y2="646.86" gradientUnits="userSpaceOnUse">
<stop stop-color="#E0EDFF"/>
<stop offset="1" stop-color="#E9E9E9" stop-opacity="0"/>
</linearGradient>
<linearGradient id="paint2_linear_1_3" x1="506" y1="0" x2="506" y2="892.477" gradientUnits="userSpaceOnUse">
<stop stop-color="#E0EDFF"/>
<stop offset="1" stop-color="#E9E9E9" stop-opacity="0"/>
</linearGradient>
<clipPath id="clip0_1_3">
<rect x="424" y="186.685" width="40" height="40" rx="20" fill="white"/>
</clipPath>
<clipPath id="clip1_1_3">
<rect width="53.3333" height="53.3333" fill="white" transform="translate(417.333 180.018)"/>
</clipPath>
<clipPath id="clip2_1_3">
<rect x="557" y="87.0165" width="40" height="40" rx="20" fill="white"/>
</clipPath>
<clipPath id="clip3_1_3">
<rect width="56.6667" height="56.6667" fill="white" transform="translate(548.667 78.6832)"/>
</clipPath>
<clipPath id="clip4_1_3">
<rect x="737" y="46.5536" width="40" height="40" rx="20" fill="white"/>
</clipPath>
<clipPath id="clip5_1_3">
<rect x="314" y="11" width="40" height="40" rx="20" fill="white"/>
</clipPath>
<clipPath id="clip6_1_3">
<rect width="53.3333" height="40" fill="white" transform="translate(307.333 11)"/>
</clipPath>
<clipPath id="clip7_1_3">
<rect x="792.994" y="222" width="40" height="40" rx="20" fill="white"/>
</clipPath>
<clipPath id="clip8_1_3">
<rect x="95" y="162.157" width="40" height="40" rx="20" fill="white"/>
</clipPath>
</defs>
</svg>
